<?xml version="1.0" standalone="no"?><!DOCTYPE svg PUBLIC "-//W3C//DTD SVG 1.1//EN" "http://www.w3.org/Graphics/SVG/1.1/DTD/svg11.dtd"><svg t="1589789372552" class="icon" viewBox="0 0 1024 1024" version="1.1" xmlns="http://www.w3.org/2000/svg" p-id="3518" xmlns:xlink="http://www.w3.org/1999/xlink" width="200" height="200"><defs><style type="text/css"></style></defs><path d="M1017 389c-16.1-49.2-60.1-80.9-112.1-80.9h-150c-38 0-71.3-24.1-83.1-60l-46.4-141.8c-16.1-49.2-60.1-80.9-112.1-80.9s-96 31.8-112.1 80.9L355 248.1c-11.7 35.9-45.1 60-83.1 60h-150c-52 0-96 31.8-112.1 80.9-16.1 49.2 0.7 100.5 42.8 130.9L174 607.6c30.7 22.2 43.5 61.2 31.7 97.1l-46.4 141.8c-16.1 49.2 0.7 100.6 42.8 130.9 21 15.2 45.1 22.8 69.2 22.8s48.2-7.6 69.2-22.8L462 889.8c30.7-22.2 72-22.2 102.7 0l121.4 87.7c42.1 30.4 96.5 30.4 138.5 0 42.1-30.4 58.9-81.8 42.8-130.9L821 704.7c-11.7-35.9 1-74.9 31.7-97.1l121.4-87.7c42.2-30.4 59-81.8 42.9-130.9z m-60.7 106.4l-121.4 87.7c-41.4 29.9-58.6 82.5-42.8 130.9l46.4 141.8c14.5 44.2-6.9 79.2-31.7 97.1-24.9 17.9-64.9 27.3-102.7 0l-121.4-87.7c-41.4-29.9-97.1-29.9-138.5 0l-121.4 87.7c-37.8 27.3-77.8 17.9-102.7 0-24.8-17.9-46.2-52.8-31.7-97.1L234.7 714c15.8-48.4-1.4-101-42.8-130.9L70.5 495.4c-37.9-27.3-41.2-68.1-31.7-97.1 9.5-29 36.3-60 83.1-60h150c51.2 0 96.2-32.5 112.1-80.9l46.4-141.8c14.5-44.2 52.4-60 83.1-60s68.6 15.8 83.1 60L643 257.5c15.8 48.4 60.9 80.9 112.1 80.9h150.1c46.8 0 73.6 31 83.1 60 9.2 29 5.9 69.7-32 97z" fill="#333234" p-id="3519"></path><path d="M757.1 444l-132 116c-0.4 0.4-0.6 0.9-1 1.3-0.7 0.8-1.4 1.6-1.9 2.5-0.5 0.8-0.8 1.6-1.2 2.5-0.3 0.9-0.6 1.8-0.7 2.8-0.2 1-0.2 2-0.1 3 0 0.6-0.2 1.1-0.1 1.7l30.5 181.6c1.2 7.4 7.7 12.7 15 12.7 0.8 0 1.7-0.1 2.5-0.2 8.3-1.4 13.9-9.2 12.5-17.4l-29.1-173.4 125.7-110.5c6.3-5.5 6.9-15.1 1.3-21.4-5.5-6.2-15.2-6.7-21.4-1.2z" fill="#333234" p-id="3520"></path><path d="M683.6 831.2a17.7 17.6 0 1 0 35.4 0 17.7 17.6 0 1 0-35.4 0Z" fill="#333234" p-id="3521"></path></svg>