<?xml version="1.0" standalone="no"?><!DOCTYPE svg PUBLIC "-//W3C//DTD SVG 1.1//EN" "http://www.w3.org/Graphics/SVG/1.1/DTD/svg11.dtd"><svg t="1588488688533" class="icon" viewBox="0 0 1024 1024" version="1.1" xmlns="http://www.w3.org/2000/svg" p-id="19331" xmlns:xlink="http://www.w3.org/1999/xlink" width="200" height="200"><defs><style type="text/css"></style></defs><path d="M226.5 479.3c-13.7 0-27.4-5.7-37.1-16.8-17.9-20.5-15.8-51.6 4.7-69.4l287.8-251.3c20.5-17.9 51.6-15.8 69.4 4.7 17.9 20.5 15.8 51.6-4.7 69.4L258.8 467.2c-9.3 8.1-20.9 12.1-32.3 12.1z" fill="#DA2048" opacity=".8" p-id="19332"></path><path d="M802 479.3c-11.5 0-23-4-32.3-12.1L481.9 215.9c-20.5-17.9-22.6-49-4.7-69.4 17.9-20.5 48.9-22.6 69.4-4.7l287.8 251.3c20.5 17.9 22.6 49 4.7 69.4-9.8 11.1-23.4 16.8-37.1 16.8z" fill="#DA2048" opacity=".8" p-id="19333"></path><path d="M226.4 861.7c-27.2 0-49.2-22-49.2-49.2V430.1c0-27.2 22-49.2 49.2-49.2s49.2 22 49.2 49.2v382.3c0 27.2-22 49.3-49.2 49.3z" fill="#DA2048" opacity=".8" p-id="19334"></path><path d="M802 861.7c-27.2 0-49.2-22-49.2-49.2V430.1c0-27.2 22-49.2 49.2-49.2 27.2 0 49.2 22 49.2 49.2v382.3c0 27.2-22 49.3-49.2 49.3z" fill="#DA2048" opacity=".8" p-id="19335"></path><path d="M802 861.7H226.4c-27.2 0-49.2-22-49.2-49.2s22-49.2 49.2-49.2H802c27.2 0 49.2 22 49.2 49.2s-22 49.2-49.2 49.2z" fill="#DA2048" opacity=".8" p-id="19336"></path></svg>